<svg xmlns="http://www.w3.org/2000/svg" xmlns:xlink="http://www.w3.org/1999/xlink" width="125.003" height="135.489" viewBox="0 0 125.003 135.489">
  <defs>
    <linearGradient id="a" x1="62.501" y1="131.989" x2="62.501" y2="6.084" gradientUnits="userSpaceOnUse">
      <stop offset="0" stop-color="#a65ecc"/>
      <stop offset="0.721" stop-color="#c088e5"/>
    </linearGradient>
  </defs>
  <g>
    <g>
      <path d="M32.9,30.289C12.6,51.889,3.32,62.7,3.5,65.089c.3,4,16.9,20.5,39.8,43.9l10.3,10.5s-.6,12.5-.2,12.5,8-6.7,16.9-15c9-8.2,20-18.2,24.5-22.2,20.7-18.1,26.7-23.7,26.7-26.5,0-3.057-23.129-23.9-28.972-29.118a2,2,0,0,0-2.657,0L61.5,67.084s18,23.1,18,23.405c0,1.4-23.695-14.5-25.5-14.5-1.2,0-16.995,11.3-17.195,11.1-.7-.7,10.7-15,10.7-17.095,0-1.905-14.7-19.7-14.5-19.9.3-.3,19.7,11,21.5,11-.081.076,8.269-8.271,11.627-11.627a2.078,2.078,0,0,0,.1-2.841c-2.056-2.351-6.315-7.144-10.625-11.527C42.1,21.289,41.5,21.189,32.9,30.289Z" fill="#849"/>
      <polygon points="75.808 43.084 84.808 33.084 77.808 27.084 75.808 43.084" fill="#849"/>
      <polygon points="68.808 36.084 58.808 13.084 72.808 6.084 68.808 36.084" fill="#849"/>
    </g>
    <g>
      <path d="M32.9,30.289C12.6,51.889,3.32,62.7,3.5,65.089c.3,4,16.9,20.5,39.8,43.9l10.3,10.5s-.6,12.5-.2,12.5,8-6.7,16.9-15c9-8.2,20-18.2,24.5-22.2,20.7-18.1,26.7-23.7,26.7-26.5,0-3.057-23.129-23.9-28.972-29.118a2,2,0,0,0-2.657,0L61.5,67.084s18,23.1,18,23.405c0,1.4-23.695-14.5-25.5-14.5-1.2,0-16.995,11.3-17.195,11.1-.7-.7,10.7-15,10.7-17.095,0-1.905-14.7-19.7-14.5-19.9.3-.3,19.7,11,21.5,11-.081.076,8.269-8.271,11.627-11.627a2.078,2.078,0,0,0,.1-2.841c-2.056-2.351-6.315-7.144-10.625-11.527C42.1,21.289,41.5,21.189,32.9,30.289Z" fill="none" stroke="#fff" stroke-miterlimit="6" stroke-width="7"/>
      <polygon points="75.808 43.084 84.808 33.084 77.808 27.084 75.808 43.084" fill="none" stroke="#fff" stroke-miterlimit="6" stroke-width="7"/>
      <polygon points="68.808 36.084 58.808 13.084 72.808 6.084 68.808 36.084" fill="none" stroke="#fff" stroke-miterlimit="6" stroke-width="7"/>
    </g>
    <g>
      <path d="M32.9,30.289C12.6,51.889,3.32,62.7,3.5,65.089c.3,4,16.9,20.5,39.8,43.9l10.3,10.5s-.6,12.5-.2,12.5,8-6.7,16.9-15c9-8.2,20-18.2,24.5-22.2,20.7-18.1,26.7-23.7,26.7-26.5,0-3.057-23.129-23.9-28.972-29.118a2,2,0,0,0-2.657,0L61.5,67.084s18,23.1,18,23.405c0,1.4-23.695-14.5-25.5-14.5-1.2,0-16.995,11.3-17.195,11.1-.7-.7,10.7-15,10.7-17.095,0-1.905-14.7-19.7-14.5-19.9.3-.3,19.7,11,21.5,11-.081.076,8.269-8.271,11.627-11.627a2.078,2.078,0,0,0,.1-2.841c-2.056-2.351-6.315-7.144-10.625-11.527C42.1,21.289,41.5,21.189,32.9,30.289Z" fill="url(#a)"/>
      <polygon points="75.808 43.084 84.808 33.084 77.808 27.084 75.808 43.084" fill="url(#a)"/>
      <polygon points="68.808 36.084 58.808 13.084 72.808 6.084 68.808 36.084" fill="url(#a)"/>
    </g>
  </g>
</svg>
