<svg xmlns="http://www.w3.org/2000/svg" xmlns:xlink="http://www.w3.org/1999/xlink" width="132.917" height="122" viewBox="0 0 132.917 122">
  <defs>
    <linearGradient id="a" x1="66.458" y1="118.5" x2="66.458" y2="3.5" gradientUnits="userSpaceOnUse">
      <stop offset="0" stop-color="#ee1167"/>
      <stop offset="1" stop-color="#f1488b"/>
    </linearGradient>
  </defs>
  <g>
    <g>
      <g>
        <circle cx="79.5" cy="56" r="6.5" fill="#e16"/>
        <ellipse cx="8" cy="75.5" rx="4.5" ry="5" fill="#e16"/>
        <path d="M118.5,53c0,3.038,2.015,5.5,4.5,5.5s4.5-2.462,4.5-5.5-2.5-5.5-4-5.5C121.015,47.5,118.5,49.962,118.5,53Z" fill="#e16"/>
      </g>
      <g>
        <path d="M73.209,114c-.082-.42-1.214-1.049-2.981-1.629a26.446,26.446,0,0,0-2.92-.771A57.944,57.944,0,0,1,36,93.825,56.626,56.626,0,0,1,22.771,68.093c-.117-.538-.216-1.082-.318-1.625a62.771,62.771,0,0,1-.936-8.193c-.03-.756-.059-1.512-.059-2.275a56.387,56.387,0,0,1,2.078-15.157A58.082,58.082,0,0,1,44.1,10.717c.168-.127.329-.261.5-.387l.149-.11c3.1-2.311,5.707-3.551,5.707-4.72,0-.8-2.358-2-5.958-2-5.6,0-7.092,1.3-8.392,3.2a23.043,23.043,0,0,0-2,6.8c-1.3,8.8-6.4,10.6-11.6,4-4.9-6.2-11.1-6.4-12.3-.4-.6,3.5,3.1,7.4,7.1,7.4,5.5,0,7,4.9,2.7,9a7.5,7.5,0,0,0-2.5,5.9c0,2.9-.8,4.3-4.9,8.1-7.9,7.4-7.7,12.1.6,17,8.9,5.4,10.2,8.8,6.1,15.9-2.6,4.5-2,6.7,2.2,7.6,4,.9,4.6,2.6,2.6,6.9-2.2,4.7-2,6.1,1,8.5,1.9,1.5,4.1,2.1,7.5,2.1,5.3,0,7.1,1.2,10.1,6.9,2.4,4.3,4,4.7,11.9,2.6,5.1-1.3,8.1-1.5,11.6-.9C72.608,115.2,73.5,115.5,73.209,114Z" fill="#e16"/>
        <path d="M96.508,111.6a18.3,18.3,0,0,1-4.6,1.2c-5.45,1-9.45-.3-9.4,1.6,0,2.1,8.2,4.1,10.5,4.1,2.8,0,4.2-1.1,5.4-4.2C99.508,111.3,98.708,110.1,96.508,111.6Z" fill="#e16"/>
      </g>
      <path d="M27.791,61.737c2.891,25.547,24.835,45.413,51.491,45.413a51.913,51.913,0,0,0,45.455-26.574c.224-.425.463-.846.671-1.276,3.9-7.8,5.2-14.8,2.8-14.8-.9,0-1.8,1.4-2.4,3.7-.9,4.1-3.5,5.2-4.1,1.8-1.1-5.8-4.5-5-5.7,1.3-1.1,6-3.1,8.4-6.8,8-4.6-.4-4.5-2.8.4-11,6.1-10,5.6-16.8-1.2-16.8-3.4,0-4.1,1-4.6,6.8-1.4,17.3-21.1,28-36.2,19.7C57.908,72.6,53.2,65,54,53.5c.46-6.713,4.31-12.834,9.981-17.586a18.229,18.229,0,0,1,2.741-1.893c3.056-1.725,4.425-2.5,9.686-2.321,5.4.2,6.6,0,6.6-1.2,0-1.1-1.1-1.5-4-1.5-2.8-.1-4.8-.8-6.3-2.3a7.494,7.494,0,0,0-4.2-2.2c-3.1,0-3.6-2.8-1.1-5.3,4.3-4.3,18.2-1.7,23.8,4.5,2,2.2,6.1,2.4,6.9.3.9-2.3-1.5-4.5-4.8-4.5-4.2,0-6.8-1.7-6.8-4.4,0-3.2,2.5-5.1,6.9-5,4.8,0,10.2,2.8,15.9,8.1,4.4,4,8.2,5.6,8.2,3.3a.254.254,0,0,0-.012-.043,51.926,51.926,0,0,0-21.87-14c-1.721-.538-3.421-1.007-5.1-1.39-.088-.019-.174-.041-.261-.06-.3-.066-.59-.122-.885-.183A52.336,52.336,0,0,0,70,5.685c-.993.207-1.987.438-2.987.715a57.45,57.45,0,0,0-14.441,5.766,51.259,51.259,0,0,0-23.79,32.388A56.046,56.046,0,0,0,27.508,56.5,51.352,51.352,0,0,0,27.791,61.737ZM102.5,81.5s4,0,4,4-4,6-6,6c-3,0-4-3-4-5S98.5,81.5,102.5,81.5Z" fill="#e16"/>
    </g>
    <g>
      <g>
        <circle cx="79.5" cy="56" r="6.5" fill="none" stroke="#fff" stroke-miterlimit="6" stroke-width="7"/>
        <ellipse cx="8" cy="75.5" rx="4.5" ry="5" fill="none" stroke="#fff" stroke-miterlimit="6" stroke-width="7"/>
        <path d="M118.5,53c0,3.038,2.015,5.5,4.5,5.5s4.5-2.462,4.5-5.5-2.5-5.5-4-5.5C121.015,47.5,118.5,49.962,118.5,53Z" fill="none" stroke="#fff" stroke-miterlimit="6" stroke-width="7"/>
      </g>
      <g>
        <path d="M73.209,114c-.082-.42-1.214-1.049-2.981-1.629a26.446,26.446,0,0,0-2.92-.771A57.944,57.944,0,0,1,36,93.825,56.626,56.626,0,0,1,22.771,68.093c-.117-.538-.216-1.082-.318-1.625a62.771,62.771,0,0,1-.936-8.193c-.03-.756-.059-1.512-.059-2.275a56.387,56.387,0,0,1,2.078-15.157A58.082,58.082,0,0,1,44.1,10.717c.168-.127.329-.261.5-.387l.149-.11c3.1-2.311,5.707-3.551,5.707-4.72,0-.8-2.358-2-5.958-2-5.6,0-7.092,1.3-8.392,3.2a23.043,23.043,0,0,0-2,6.8c-1.3,8.8-6.4,10.6-11.6,4-4.9-6.2-11.1-6.4-12.3-.4-.6,3.5,3.1,7.4,7.1,7.4,5.5,0,7,4.9,2.7,9a7.5,7.5,0,0,0-2.5,5.9c0,2.9-.8,4.3-4.9,8.1-7.9,7.4-7.7,12.1.6,17,8.9,5.4,10.2,8.8,6.1,15.9-2.6,4.5-2,6.7,2.2,7.6,4,.9,4.6,2.6,2.6,6.9-2.2,4.7-2,6.1,1,8.5,1.9,1.5,4.1,2.1,7.5,2.1,5.3,0,7.1,1.2,10.1,6.9,2.4,4.3,4,4.7,11.9,2.6,5.1-1.3,8.1-1.5,11.6-.9C72.608,115.2,73.5,115.5,73.209,114Z" fill="none" stroke="#fff" stroke-miterlimit="6" stroke-width="7"/>
        <path d="M96.508,111.6a18.3,18.3,0,0,1-4.6,1.2c-5.45,1-9.45-.3-9.4,1.6,0,2.1,8.2,4.1,10.5,4.1,2.8,0,4.2-1.1,5.4-4.2C99.508,111.3,98.708,110.1,96.508,111.6Z" fill="none" stroke="#fff" stroke-miterlimit="6" stroke-width="7"/>
      </g>
      <path d="M27.791,61.737c2.891,25.547,24.835,45.413,51.491,45.413a51.913,51.913,0,0,0,45.455-26.574c.224-.425.463-.846.671-1.276,3.9-7.8,5.2-14.8,2.8-14.8-.9,0-1.8,1.4-2.4,3.7-.9,4.1-3.5,5.2-4.1,1.8-1.1-5.8-4.5-5-5.7,1.3-1.1,6-3.1,8.4-6.8,8-4.6-.4-4.5-2.8.4-11,6.1-10,5.6-16.8-1.2-16.8-3.4,0-4.1,1-4.6,6.8-1.4,17.3-21.1,28-36.2,19.7C57.908,72.6,53.2,65,54,53.5c.46-6.713,4.31-12.834,9.981-17.586a18.229,18.229,0,0,1,2.741-1.893c3.056-1.725,4.425-2.5,9.686-2.321,5.4.2,6.6,0,6.6-1.2,0-1.1-1.1-1.5-4-1.5-2.8-.1-4.8-.8-6.3-2.3a7.494,7.494,0,0,0-4.2-2.2c-3.1,0-3.6-2.8-1.1-5.3,4.3-4.3,18.2-1.7,23.8,4.5,2,2.2,6.1,2.4,6.9.3.9-2.3-1.5-4.5-4.8-4.5-4.2,0-6.8-1.7-6.8-4.4,0-3.2,2.5-5.1,6.9-5,4.8,0,10.2,2.8,15.9,8.1,4.4,4,8.2,5.6,8.2,3.3a.254.254,0,0,0-.012-.043,51.926,51.926,0,0,0-21.87-14c-1.721-.538-3.421-1.007-5.1-1.39-.088-.019-.174-.041-.261-.06-.3-.066-.59-.122-.885-.183A52.336,52.336,0,0,0,70,5.685c-.993.207-1.987.438-2.987.715a57.45,57.45,0,0,0-14.441,5.766,51.259,51.259,0,0,0-23.79,32.388A56.046,56.046,0,0,0,27.508,56.5,51.352,51.352,0,0,0,27.791,61.737ZM102.5,81.5s4,0,4,4-4,6-6,6c-3,0-4-3-4-5S98.5,81.5,102.5,81.5Z" fill="none" stroke="#fff" stroke-miterlimit="6" stroke-width="7"/>
    </g>
    <g>
      <g>
        <circle cx="79.5" cy="56" r="6.5" fill="url(#a)"/>
        <ellipse cx="8" cy="75.5" rx="4.5" ry="5" fill="url(#a)"/>
        <path d="M118.5,53c0,3.038,2.015,5.5,4.5,5.5s4.5-2.462,4.5-5.5-2.5-5.5-4-5.5C121.015,47.5,118.5,49.962,118.5,53Z" fill="url(#a)"/>
      </g>
      <g>
        <path d="M73.209,114c-.082-.42-1.214-1.049-2.981-1.629a26.446,26.446,0,0,0-2.92-.771A57.944,57.944,0,0,1,36,93.825,56.626,56.626,0,0,1,22.771,68.093c-.117-.538-.216-1.082-.318-1.625a62.771,62.771,0,0,1-.936-8.193c-.03-.756-.059-1.512-.059-2.275a56.387,56.387,0,0,1,2.078-15.157A58.082,58.082,0,0,1,44.1,10.717c.168-.127.329-.261.5-.387l.149-.11c3.1-2.311,5.707-3.551,5.707-4.72,0-.8-2.358-2-5.958-2-5.6,0-7.092,1.3-8.392,3.2a23.043,23.043,0,0,0-2,6.8c-1.3,8.8-6.4,10.6-11.6,4-4.9-6.2-11.1-6.4-12.3-.4-.6,3.5,3.1,7.4,7.1,7.4,5.5,0,7,4.9,2.7,9a7.5,7.5,0,0,0-2.5,5.9c0,2.9-.8,4.3-4.9,8.1-7.9,7.4-7.7,12.1.6,17,8.9,5.4,10.2,8.8,6.1,15.9-2.6,4.5-2,6.7,2.2,7.6,4,.9,4.6,2.6,2.6,6.9-2.2,4.7-2,6.1,1,8.5,1.9,1.5,4.1,2.1,7.5,2.1,5.3,0,7.1,1.2,10.1,6.9,2.4,4.3,4,4.7,11.9,2.6,5.1-1.3,8.1-1.5,11.6-.9C72.608,115.2,73.5,115.5,73.209,114Z" fill="url(#a)"/>
        <path d="M96.508,111.6a18.3,18.3,0,0,1-4.6,1.2c-5.45,1-9.45-.3-9.4,1.6,0,2.1,8.2,4.1,10.5,4.1,2.8,0,4.2-1.1,5.4-4.2C99.508,111.3,98.708,110.1,96.508,111.6Z" fill="url(#a)"/>
      </g>
      <path d="M27.791,61.737c2.891,25.547,24.835,45.413,51.491,45.413a51.913,51.913,0,0,0,45.455-26.574c.224-.425.463-.846.671-1.276,3.9-7.8,5.2-14.8,2.8-14.8-.9,0-1.8,1.4-2.4,3.7-.9,4.1-3.5,5.2-4.1,1.8-1.1-5.8-4.5-5-5.7,1.3-1.1,6-3.1,8.4-6.8,8-4.6-.4-4.5-2.8.4-11,6.1-10,5.6-16.8-1.2-16.8-3.4,0-4.1,1-4.6,6.8-1.4,17.3-21.1,28-36.2,19.7C57.908,72.6,53.2,65,54,53.5c.46-6.713,4.31-12.834,9.981-17.586a18.229,18.229,0,0,1,2.741-1.893c3.056-1.725,4.425-2.5,9.686-2.321,5.4.2,6.6,0,6.6-1.2,0-1.1-1.1-1.5-4-1.5-2.8-.1-4.8-.8-6.3-2.3a7.494,7.494,0,0,0-4.2-2.2c-3.1,0-3.6-2.8-1.1-5.3,4.3-4.3,18.2-1.7,23.8,4.5,2,2.2,6.1,2.4,6.9.3.9-2.3-1.5-4.5-4.8-4.5-4.2,0-6.8-1.7-6.8-4.4,0-3.2,2.5-5.1,6.9-5,4.8,0,10.2,2.8,15.9,8.1,4.4,4,8.2,5.6,8.2,3.3a.254.254,0,0,0-.012-.043,51.926,51.926,0,0,0-21.87-14c-1.721-.538-3.421-1.007-5.1-1.39-.088-.019-.174-.041-.261-.06-.3-.066-.59-.122-.885-.183A52.336,52.336,0,0,0,70,5.685c-.993.207-1.987.438-2.987.715a57.45,57.45,0,0,0-14.441,5.766,51.259,51.259,0,0,0-23.79,32.388A56.046,56.046,0,0,0,27.508,56.5,51.352,51.352,0,0,0,27.791,61.737ZM102.5,81.5s4,0,4,4-4,6-6,6c-3,0-4-3-4-5S98.5,81.5,102.5,81.5Z" fill="url(#a)"/>
    </g>
  </g>
</svg>
