<svg xmlns="http://www.w3.org/2000/svg" xmlns:xlink="http://www.w3.org/1999/xlink" width="113.95" height="132" viewBox="0 0 113.95 132">
  <defs>
    <linearGradient id="a" x1="79.332" y1="95.089" x2="24.621" y2="40.379" gradientUnits="userSpaceOnUse">
      <stop offset="0" stop-color="#56dec4"/>
      <stop offset="1" stop-color="#8df6d1"/>
    </linearGradient>
  </defs>
  <g>
    <path d="M82.85,10.3C76.55,7,65,3.5,61.5,3.5l-.45,3.2c-.55,4.8-2.3,25.2-3.7,49.3-.7,11-1.3,20.1-1.4,20.3-.1.1-4.125-2.06-7.409-3.753a30,30,0,1,0,14.886,27.947l0,.006s2.12-21.3,3.52-45.3l.7-10.7h4.8c10.1,0,25,6.7,33.8,15.3l4.2,4.1V57.3C110.45,36.9,100.15,19.3,82.85,10.3Z" fill="none" stroke="#fff" stroke-miterlimit="6" stroke-width="7"/>
    <path d="M82.85,10.3C76.55,7,65,3.5,61.5,3.5l-.45,3.2c-.55,4.8-2.3,25.2-3.7,49.3-.7,11-1.3,20.1-1.4,20.3-.1.1-4.125-2.06-7.409-3.753a30,30,0,1,0,14.886,27.947l0,.006s2.12-21.3,3.52-45.3l.7-10.7h4.8c10.1,0,25,6.7,33.8,15.3l4.2,4.1V57.3C110.45,36.9,100.15,19.3,82.85,10.3Z" fill="url(#a)"/>
  </g>
</svg>
