<svg xmlns="http://www.w3.org/2000/svg" xmlns:xlink="http://www.w3.org/1999/xlink" width="134.59" height="128.275" viewBox="0 0 134.59 128.275">
  <defs>
    <linearGradient id="a" x1="66.01" y1="124.775" x2="66.01" y2="3.5" gradientUnits="userSpaceOnUse">
      <stop offset="0" stop-color="#4354dd"/>
      <stop offset="1" stop-color="#0aa7f9"/>
    </linearGradient>
  </defs>
  <g>
    <g>
      <path d="M128,37c-3-14-3-28-34-29S17.5,47.5,17.5,79.5s36,36,53,24c-6,13-22.537,21.537-35.268,21.268S3.5,113.5,3.5,86.5s39-83,90-83C135.5,3.5,128,37,128,37Z" fill="#45d"/>
      <polygon points="125 75 102.45 65 109.625 49 92.2 56 84 34 75.8 56 58.375 49 65.55 65 43 75 63.5 82 57.35 101 73.75 94 84 115 94.25 94 110.65 101 104.5 82 125 75" fill="#45d"/>
    </g>
    <g>
      <path d="M128,37c-3-14-3-28-34-29S17.5,47.5,17.5,79.5s36,36,53,24c-6,13-22.537,21.537-35.268,21.268S3.5,113.5,3.5,86.5s39-83,90-83C135.5,3.5,128,37,128,37Z" fill="none" stroke="#fff" stroke-miterlimit="6" stroke-width="7"/>
      <polygon points="125 75 102.45 65 109.625 49 92.2 56 84 34 75.8 56 58.375 49 65.55 65 43 75 63.5 82 57.35 101 73.75 94 84 115 94.25 94 110.65 101 104.5 82 125 75" fill="none" stroke="#fff" stroke-miterlimit="6" stroke-width="7"/>
    </g>
    <g>
      <path d="M128,37c-3-14-3-28-34-29S17.5,47.5,17.5,79.5s36,36,53,24c-6,13-22.537,21.537-35.268,21.268S3.5,113.5,3.5,86.5s39-83,90-83C135.5,3.5,128,37,128,37Z" fill="url(#a)"/>
      <polygon points="125 75 102.45 65 109.625 49 92.2 56 84 34 75.8 56 58.375 49 65.55 65 43 75 63.5 82 57.35 101 73.75 94 84 115 94.25 94 110.65 101 104.5 82 125 75" fill="url(#a)"/>
    </g>
  </g>
</svg>
